HIERARCHY
ROOT Hips
{
    OFFSET 0.000000 0.000000 0.000000
    CHANNELS 6 Xposition Yposition Zposition Zrotation Xrotation Yrotation
    JOINT Spine
    {
        OFFSET -0.000000 0.083210 0.000000
        CHANNELS 3 Zrotation Xrotation Yrotation
        JOINT Spine1
        {
            OFFSET -0.000000 0.256334 0.000000
            CHANNELS 3 Zrotation Xrotation Yrotation
            JOINT Neck
            {
                OFFSET -0.000000 0.275576 0.002912
                CHANNELS 3 Zrotation Xrotation Yrotation
                JOINT Head
                {
                    OFFSET -0.000000 0.157287 0.020295
                    CHANNELS 3 Zrotation Xrotation Yrotation
                    End Site
                    {
                        OFFSET -0.000000 0.202951 0.000000
                    }
                }
            }
            JOINT LeftShoulder
            {
                OFFSET 0.041044 0.235234 -0.000041
                CHANNELS 3 Zrotation Xrotation Yrotation
                JOINT LeftArm
                {
                    OFFSET 0.117964 0.000000 0.000000
                    CHANNELS 3 Zrotation Xrotation Yrotation
                    JOINT LeftForeArm
                    {
                        OFFSET 0.291248 0.000000 0.000000
                        CHANNELS 3 Zrotation Xrotation Yrotation
                        JOINT LeftHand
                        {
                            OFFSET 0.245673 0.000000 0.000000
                            CHANNELS 3 Zrotation Xrotation Yrotation
                            End Site
                            {
                                OFFSET 0.152213 0.000000 0.000000
                            }
                        }
                    }
                }
            }
            JOINT RightShoulder
            {
                OFFSET -0.040052 0.235234 -0.000041
                CHANNELS 3 Zrotation Xrotation Yrotation
                JOINT RightArm
                {
                    OFFSET -0.117964 0.000000 0.000000
                    CHANNELS 3 Zrotation Xrotation Yrotation
                    JOINT RightForeArm
                    {
                        OFFSET -0.291248 0.000000 0.000000
                        CHANNELS 3 Zrotation Xrotation Yrotation
                        JOINT RightHand
                        {
                            OFFSET -0.245673 0.000000 0.000000
                            CHANNELS 3 Zrotation Xrotation Yrotation
                            End Site
                            {
                                OFFSET -0.152213 0.000000 0.000000
                            }
                        }
                    }
                }
            }
        }
    }
    JOINT LeftUpLeg
    {
        OFFSET 0.101475 0.000000 0.000000
        CHANNELS 3 Zrotation Xrotation Yrotation
        JOINT LeftLeg
        {
            OFFSET -0.000000 -0.446535 0.000000
            CHANNELS 3 Zrotation Xrotation Yrotation
            JOINT LeftFoot
            {
                OFFSET -0.000000 -0.400037 0.000000
                CHANNELS 3 Zrotation Xrotation Yrotation
                JOINT LeftToeBase
                {
                    OFFSET -0.000000 -0.065959 0.152213
                    CHANNELS 3 Zrotation Xrotation Yrotation
                    End Site
                    {
                        OFFSET -0.000000 0.000000 0.040590
                    }
                }
            }
        }
    }
    JOINT RightUpLeg
    {
        OFFSET -0.101475 0.000000 0.000000
        CHANNELS 3 Zrotation Xrotation Yrotation
        JOINT RightLeg
        {
            OFFSET -0.000000 -0.446535 0.000000
            CHANNELS 3 Zrotation Xrotation Yrotation
            JOINT RightFoot
            {
                OFFSET -0.000000 -0.400037 0.000000
                CHANNELS 3 Zrotation Xrotation Yrotation
                JOINT RightToeBase
                {
                    OFFSET -0.000000 -0.065959 0.152213
                    CHANNELS 3 Zrotation Xrotation Yrotation
                    End Site
                    {
                        OFFSET -0.000000 0.000000 0.040590
                    }
                }
            }
        }
    }
}
MOTION
Frames:    12
Frame Time:    0.008333
-0.458315    0.951359    -0.905913    0.205492    -1.332135    -1.732463    -0.323496    -1.426286    -0.711001    -0.260899    1.680072    -0.231927    1.698182    1.897823    0.225046    1.927836    2.109461    0.203896    20.650793    -6.317942    2.064378    -21.104246    2.720676    3.116760    -0.058991    4.885727    2.702143    1.823310    4.901533    0.908680    -17.799114    -6.153578    3.189284    23.268995    6.140414    -0.015057    -0.480850    0.580424    -1.076056    9.018825    0.333741    -3.070983    8.212174    7.633363    -0.569754    -0.031278    0.933008    9.245256    -9.090756    -5.044557    -1.369545    0.142627    2.437774    -1.333646    -6.942516    3.086518    7.235177    2.484006    8.384597    3.822695    4.861602    -10.377114    -12.207105    0.054940    -0.768776    1.699835    
-0.458311    0.951351    -0.905818    0.206374    -1.327058    -1.740550    -0.323592    -1.430600    -0.707886    -0.255345    1.679536    -0.231030    1.698193    1.871944    0.222612    1.911148    2.114417    0.203418    20.651964    -6.314575    2.060068    -21.116217    2.719887    3.120146    -0.082023    4.881834    2.692226    2.048635    4.899951    0.908911    -17.793367    -6.152812    3.189915    23.261806    6.145761    -0.004525    -0.474105    0.582275    -1.087775    8.999988    0.336089    -3.071316    8.207247    7.649691    -0.580089    -0.026623    0.907643    9.259953    -9.088602    -5.042174    -1.363527    0.142286    2.433026    -1.330966    -6.944559    3.087100    7.248752    2.486011    8.382073    3.816301    4.857284    -10.382827    -12.204219    0.054721    -0.766270    1.694196    
-0.458321    0.951339    -0.905721    0.202567    -1.319370    -1.745608    -0.322188    -1.435465    -0.704215    -0.245712    1.675531    -0.230033    1.697086    1.850201    0.218791    1.904852    2.118418    0.199923    20.652254    -6.314087    2.055042    -21.128531    2.718456    3.118151    -0.083685    4.875535    2.700651    2.065016    4.893488    0.889437    -17.785774    -6.148003    3.181298    23.253620    6.165724    0.014160    -0.475345    0.575622    -1.102919    8.994783    0.329014    -3.075571    8.210310    7.663032    -0.593664    -0.024914    0.880989    9.282508    -9.091250    -5.040442    -1.365101    0.143118    2.433750    -1.338672    -6.939783    3.086928    7.276814    2.487659    8.377669    3.805888    4.855568    -10.387597    -12.216906    0.054782    -0.773189    1.692933    
-0.458324    0.951329    -0.905624    0.201641    -1.311681    -1.747763    -0.324644    -1.435434    -0.703715    -0.235742    1.662650    -0.230006    1.699327    1.836839    0.213367    1.894860    2.122632    0.195819    20.654383    -6.313499    2.047511    -21.143711    2.714043    3.122086    -0.088196    4.853156    2.705863    2.097168    4.871471    0.890019    -17.778122    -6.145233    3.183709    23.247858    6.178585    0.021114    -0.473554    0.573873    -1.119912    9.006729    0.326713    -3.078125    8.210421    7.670903    -0.609701    -0.023948    0.864840    9.304023    -9.092946    -5.042720    -1.366984    0.143318    2.430887    -1.340845    -6.938850    3.085752    7.297601    2.490872    8.376609    3.794398    4.847539    -10.395212    -12.225952    0.054989    -0.773793    1.699060    
-0.458341    0.951316    -0.905524    0.198087    -1.305524    -1.746807    -0.329832    -1.431131    -0.700289    -0.214181    1.646093    -0.229084    1.687325    1.824242    0.206144    1.896466    2.130990    0.185851    20.645521    -6.323460    2.031134    -21.154276    2.707466    3.130353    -0.085214    4.863925    2.721304    2.145223    4.883059    0.917626    -17.780014    -6.144076    3.172104    23.244493    6.196590    0.030829    -0.469363    0.567146    -1.133854    9.014814    0.319737    -3.078551    8.213529    7.676327    -0.616113    -0.020344    0.856312    9.299184    -9.094886    -5.050242    -1.355875    0.143574    2.431665    -1.343156    -6.935896    3.088068    7.331370    2.499835    8.373054    3.774961    4.839151    -10.405408    -12.240284    0.054712    -0.769248    1.692566    
-0.458353    0.951312    -0.905427    0.196576    -1.299638    -1.742092    -0.337788    -1.422355    -0.699726    -0.192518    1.622952    -0.229174    1.677119    1.816408    0.202597    1.904279    2.138634    0.179481    20.635181    -6.333858    2.014504    -21.163126    2.690518    3.139377    -0.080248    4.860525    2.716917    2.150013    4.879524    0.914454    -17.795017    -6.160290    3.189382    23.267466    6.216136    -0.007236    -0.473572    0.558694    -1.135482    9.035518    0.311102    -3.073829    8.215384    7.679078    -0.622663    -0.018858    0.850387    9.309321    -9.094820    -5.055634    -1.364043    0.142792    2.427741    -1.336266    -6.935471    3.090672    7.357036    2.507370    8.370124    3.751268    4.832695    -10.411077    -12.244638    0.054820    -0.777642    1.692077    
-0.458377    0.951311    -0.905318    0.191362    -1.293467    -1.732650    -0.343080    -1.413540    -0.701126    -0.172983    1.600087    -0.229915    1.677628    1.808715    0.192742    1.897891    2.148837    0.170012    20.629948    -6.337945    2.000570    -21.170418    2.658345    3.141951    -0.080607    4.871358    2.708567    2.141690    4.890492    0.925727    -17.790314    -6.155440    3.169705    23.188257    6.071318    -0.026814    -0.310047    0.613332    -1.059642    8.922035    0.366946    -3.121456    8.222544    7.677902    -0.636503    -0.018173    0.851550    9.322425    -9.099482    -5.065719    -1.372040    0.143383    2.421251    -1.342502    -6.930933    3.095165    7.375488    2.516065    8.367100    3.754524    4.826538    -10.422664    -12.274750    0.054805    -0.776670    1.692057    
-0.458401    0.951309    -0.905211    0.186286    -1.287545    -1.723242    -0.351094    -1.399841    -0.700121    -0.145945    1.572554    -0.230122    1.663889    1.798029    0.184759    1.909390    2.163338    0.157573    20.619244    -6.343058    1.978780    -21.180897    2.631242    3.150184    -0.084499    4.864214    2.672914    2.165160    4.885129    1.006655    -17.794542    -6.151046    3.140801    23.134783    5.967595    -0.058776    -0.203482    0.658327    -0.949524    8.895026    0.409203    -3.182043    8.229553    7.673681    -0.645874    -0.017231    0.861040    9.303734    -9.099946    -5.088022    -1.355678    0.143530    2.422596    -1.343729    -6.924823    3.099017    7.392472    2.522435    8.366209    3.736625    4.821280    -10.433876    -12.283559    0.054657    -0.777148    1.687256    
-0.458428    0.951311    -0.905100    0.184310    -1.281784    -1.710158    -0.363722    -1.384899    -0.703378    -0.121032    1.544105    -0.231680    1.662220    1.786666    0.178199    1.905941    2.182814    0.150453    20.612459    -6.340074    1.961802    -21.193682    2.625266    3.153354    -0.106557    4.841496    2.672916    2.393150    4.863191    0.923130    -17.789261    -6.144779    3.119958    23.120285    5.956416    -0.046017    -0.193771    0.663827    -0.958789    8.905855    0.414559    -3.179759    8.235395    7.668118    -0.667696    -0.019905    0.870329    9.309130    -9.093937    -5.103784    -1.351929    0.143919    2.409187    -1.348839    -6.919067    3.101655    7.390189    2.522296    8.371593    3.729400    4.816701    -10.446212    -12.285677    0.054549    -0.778595    1.683275    
-0.458456    0.951305    -0.904972    0.183724    -1.279524    -1.695275    -0.378629    -1.366568    -0.705901    -0.097256    1.516422    -0.232707    1.667097    1.777368    0.166962    1.894157    2.196260    0.141024    20.613121    -6.341282    1.941997    -21.213472    2.625110    3.159342    -0.089400    4.821307    2.655951    2.212048    4.841641    0.949427    -17.783976    -6.138934    3.091303    23.100834    5.923948    -0.035540    -0.171897    0.688363    -0.952870    8.905509    0.438244    -3.193159    8.241384    7.665946    -0.688983    -0.025606    0.882263    9.294482    -9.088438    -5.127684    -1.335676    0.143224    2.408006    -1.342448    -6.917214    3.112271    7.405108    2.528909    8.369875    3.731549    4.804722    -10.461730    -12.316298    0.054671    -0.783960    1.684612    
-0.458494    0.951296    -0.904833    0.181079    -1.279010    -1.680460    -0.393235    -1.348374    -0.708721    -0.070216    1.492228    -0.233985    1.664429    1.763081    0.159793    1.891507    2.215237    0.133077    20.608809    -6.342992    1.922927    -21.231890    2.643483    3.163783    -0.059284    4.829000    2.627646    2.052376    4.847810    0.978432    -17.784613    -6.127861    3.070024    23.090101    5.920636    -0.025703    -0.163114    0.695660    -0.955574    8.923388    0.444254    -3.203864    8.254056    7.667054    -0.721551    -0.039221    0.894086    9.285833    -9.083091    -5.159103    -1.314016    0.143523    2.405081    -1.345576    -6.910205    3.123739    7.425284    2.532536    8.372297    3.710318    4.792384    -10.478524    -12.327106    0.054588    -0.787767    1.680345    
-0.458524    0.951284    -0.904682    0.182167    -1.280918    -1.665067    -0.411374    -1.327218    -0.715390    -0.045568    1.466226    -0.236359    1.670304    1.756972    0.150998    1.875078    2.222345    0.127010    20.602804    -6.331365    1.904062    -21.243986    2.645238    3.168752    0.014265    4.859935    2.601013    1.514587    4.872435    0.973675    -17.754166    -6.095005    3.008455    23.028824    5.912005    0.052638    -0.139534    0.710322    -0.964157    8.934535    0.457155    -3.225667    8.264676    7.673487    -0.769034    -0.059131    0.900967    9.279374    -9.066486    -5.193434    -1.280711    0.143923    2.387797    -1.351208    -6.910544    3.140045    7.456488    2.543200    8.371000    3.706659    4.779547    -10.502028    -12.372199    0.054433    -0.783255    1.677590    
